<mxfile host="app.diagrams.net" modified="2024-05-09T20:25:04.280Z" agent="Mozilla/5.0 (Windows NT 10.0; Win64; x64) AppleWebKit/537.36 (KHTML, like Gecko) Chrome/124.0.0.0 Safari/537.36" version="22.1.18" etag="U3fhz1cgT5Ki2jE2LMYc" type="github">
  <diagram name="Page-1" id="iCQvnMA0kZThC9q1o4RP">
    <mxGraphModel>
      <root>
        <mxCell id="0" />
        <mxCell id="1" parent="0" />
      </root>
    </mxGraphModel>
  </diagram>
</mxfile>
